# xmcd CD database file
#
# Track frame offsets:
#	150
#	10624
#	20857
#	35277
#	46489
#	58711
#	73543
#	87931
#	102290
#	114964
#	133165
#	147264
#	161937
#	172567
#	182856
#	197315
#	208817
#	221192
#	236375
#	250871
#	265379
#	278285
#	296786
#	311126
#
# Disc length: 4341 seconds
#
# Revision: 1
# Processed by: cddbd v1.5.2PL0 Copyright (c) Steve Scherf et al.
# Submitted via: CDex 1.70beta2
#
DISCID=5f10f318
DTITLE=Steve Baker - Blues Harmonica Play-Alongs, Vol. 2
DYEAR=1900
DGENRE=Blues
TTITLE0=Headed For Home
TTITLE1=Backwoods Blues
TTITLE2=Bluegrass Moon
TTITLE3=Lonesome
TTITLE4=Back To The Country
TTITLE5=National Blues
TTITLE6=Steve's Shuffle
TTITLE7=Been To Detroit
TTITLE8=Boogaloo Train
TTITLE9=5th Dimension
TTITLE10=(Please Don't Get Too) Stoned
TTITLE11=Take Me With You When You Go
TTITLE12=Headed For Home-2
TTITLE13=Backwoods Blues-2
TTITLE14=Bluegrass Moon-2
TTITLE15=Lonesome-2
TTITLE16=Back To The Country-2
TTITLE17=National Blues-2
TTITLE18=Steve's Shuffle-2
TTITLE19=Been To Detroit-2
TTITLE20=Boogaloo Train-2
TTITLE21=5th Dimension-2
TTITLE22=(Please Don't Get Too) Stoned-2
TTITLE23=Take Me With You When You Go-2
EXTD=
EXTT0=
EXTT1=
EXTT2=
EXTT3=
EXTT4=
EXTT5=
EXTT6=
EXTT7=
EXTT8=
EXTT9=
EXTT10=
EXTT11=
EXTT12=
EXTT13=
EXTT14=
EXTT15=
EXTT16=
EXTT17=
EXTT18=
EXTT19=
EXTT20=
EXTT21=
EXTT22=
EXTT23=
PLAYORDER=
